<?xml version="1.0" standalone="no"?>
<!DOCTYPE svg PUBLIC "-//W3C//DTD SVG 20010904//EN"
 "http://www.w3.org/TR/2001/REC-SVG-20010904/DTD/svg10.dtd">
<svg version="1.0" xmlns="http://www.w3.org/2000/svg"
 width="133.000000pt" height="127.000000pt" viewBox="0 0 133.000000 127.000000"
 preserveAspectRatio="xMidYMid meet">

<g transform="translate(0.000000,127.000000) scale(0.100000,-0.100000)"
fill="#000000" stroke="none">
<path d="M752 1150 c-80 -18 -95 -77 -34 -137 68 -68 91 -105 78 -125 -8 -14
-8 -21 2 -27 10 -6 0 -24 -42 -71 -31 -34 -56 -66 -56 -71 0 -37 74 22 128
104 24 36 26 37 87 37 61 0 63 -1 87 -37 14 -21 64 -80 112 -132 131 -141 165
-211 147 -305 -17 -92 -99 -170 -211 -203 -36 -10 -89 -16 -152 -15 -76 1 -98
-2 -98 -12 0 -20 23 -26 107 -26 140 0 244 40 321 124 53 57 72 104 72 176 0
83 -39 152 -170 299 -78 88 -107 127 -98 133 10 6 10 12 1 27 -10 17 -5 29 37
90 47 67 59 102 42 127 -10 16 -37 19 -107 10 -49 -6 -69 -4 -105 12 -56 24
-106 31 -148 22z m139 -56 c55 -25 63 -26 116 -15 68 13 83 14 83 2 0 -5 -22
-42 -50 -83 -27 -40 -50 -79 -50 -85 0 -9 -21 -13 -73 -13 -67 0 -75 2 -84 23
-6 12 -37 53 -69 91 l-58 68 23 19 c33 27 92 24 162 -7z"/>
<path d="M278 967 c-53 -15 -98 -42 -99 -60 -3 -71 1 -339 6 -347 5 -8 11 -8
19 0 7 5 27 7 45 4 41 -8 41 11 1 34 -29 16 -48 47 -36 59 3 3 20 0 37 -6 20
-7 36 -8 42 -2 14 14 1 28 -33 34 -28 6 -61 49 -48 62 3 3 31 -1 64 -10 72
-19 112 -19 189 -1 41 10 64 11 72 4 24 -20 33 4 33 88 0 70 -3 87 -19 103
-40 40 -191 61 -273 38z m212 -43 c22 -9 40 -22 40 -29 0 -24 -76 -45 -158
-44 -95 0 -147 16 -147 44 0 14 11 24 35 32 52 18 182 16 230 -3z m-226 -99
c63 -19 162 -19 216 0 53 19 50 19 50 -9 0 -34 -60 -56 -153 -56 -113 0 -167
23 -167 69 0 13 -5 14 54 -4z"/>
<path d="M900 686 c0 -17 -7 -26 -26 -30 -96 -25 -99 -144 -3 -178 28 -9 29
-13 29 -69 0 -65 -13 -76 -50 -39 -26 26 -42 25 -38 -2 2 -16 17 -30 45 -43
31 -15 42 -26 43 -42 0 -14 6 -23 15 -23 9 0 15 9 15 24 0 19 7 26 29 31 93
20 99 150 9 177 l-38 11 0 58 c0 32 4 60 9 63 5 4 23 -6 41 -20 23 -20 34 -24
42 -16 15 15 -15 49 -59 67 -22 9 -33 21 -33 34 0 12 -7 21 -15 21 -9 0 -15
-9 -15 -24z m0 -121 c0 -61 -14 -71 -51 -34 -22 22 -19 55 9 77 32 25 42 15
42 -43z m82 -122 c10 -9 18 -25 18 -36 0 -26 -28 -57 -52 -57 -15 0 -18 8 -18
55 0 60 15 71 52 38z"/>
<path d="M435 680 c-49 -12 -80 -27 -94 -44 -18 -22 -18 -531 0 -553 39 -46
212 -68 311 -39 99 28 98 27 98 321 l0 252 -24 22 c-13 12 -45 29 -71 37 -51
15 -169 17 -220 4z m248 -53 c37 -24 34 -35 -15 -57 -73 -33 -240 -25 -293 14
-16 12 -17 16 -6 30 22 27 70 35 182 33 81 -2 111 -6 132 -20z m-193 -112 c59
-6 129 1 198 21 19 5 22 3 22 -20 0 -22 -7 -30 -36 -42 -81 -34 -253 -26 -296
13 -10 9 -18 26 -18 39 0 22 1 22 33 9 17 -7 61 -16 97 -20z m-85 -81 c49 -20
205 -21 263 -1 l42 15 0 -28 c0 -33 -29 -48 -115 -61 -68 -10 -178 4 -212 27
-14 8 -23 25 -23 39 0 30 -2 29 45 9z m35 -104 c54 -14 161 -12 216 5 27 8 50
15 52 15 1 0 2 -11 2 -25 0 -42 -48 -60 -165 -60 -139 0 -185 17 -185 67 0 16
4 19 23 13 12 -3 38 -10 57 -15z m50 -105 c59 -6 129 1 198 21 18 5 22 2 22
-18 0 -40 -64 -63 -175 -63 -110 0 -168 23 -173 67 -3 27 -3 27 30 14 18 -8
62 -17 98 -21z m-79 -81 c72 -25 205 -20 282 11 27 11 23 -41 -6 -60 -55 -36
-249 -36 -304 0 -14 9 -23 25 -23 40 0 30 -4 29 51 9z"/>
<path d="M150 503 c-110 -19 -123 -37 -122 -160 1 -53 4 -105 7 -114 3 -9 22
-25 43 -35 46 -22 186 -32 197 -15 11 19 3 21 -71 27 -78 5 -137 30 -143 58
-2 16 1 18 20 12 13 -5 63 -10 112 -13 76 -5 87 -3 87 11 0 12 -10 16 -45 16
-60 0 -142 19 -160 37 -21 21 -20 47 2 39 30 -12 166 -26 186 -20 39 12 8 29
-64 35 -172 15 -175 75 -4 88 62 5 80 9 80 21 0 11 -13 15 -50 16 -27 1 -61 0
-75 -3z"/>
<path d="M1185 393 c-9 -20 -27 -52 -40 -69 -31 -40 -15 -57 22 -23 32 31 53
71 53 104 0 36 -17 31 -35 -12z"/>
</g>
</svg>
